<?xml version="1.0" encoding="UTF-8"?>
<svg version="1.1" xmlns="http://www.w3.org/2000/svg" width="512" height="512">
<path d="M0 0 C1.22847656 0.3403125 2.45695313 0.680625 3.72265625 1.03125 C29.93416716 9.05462873 56.26749831 26.42799729 71 50 C71 50.66 71 51.32 71 52 C71.79921875 51.66226563 72.5984375 51.32453125 73.421875 50.9765625 C94.66074981 42.35138564 116.56781898 43.46671874 137.7890625 51.625 C159.52159003 60.93138648 176.2505 77.98992114 185.0390625 99.90234375 C186.13405248 103.43212854 186.67375355 106.91418645 187.25 110.5625 C187.97481161 115.03741253 187.97481161 115.03741253 190.69140625 118.375 C193.11319836 119.15996392 195.4907037 119.56882514 198 120 C214.08688393 124.8926046 226.29084281 132.15429287 238 144 C239.10988281 145.09441406 239.10988281 145.09441406 240.2421875 146.2109375 C255.35559831 162.03003287 262.44850381 184.42132604 262.1484375 205.99609375 C261.08555016 227.50557696 253.19579828 245.97701976 239 262 C238.42121094 262.67289062 237.84242188 263.34578125 237.24609375 264.0390625 C223.84098267 278.5733298 204.07508226 287.71527253 184.4957087 289.28006446 C180.83293315 289.38547337 177.18063683 289.40500369 173.51638794 289.38768005 C172.11327182 289.39186461 170.71015909 289.39734821 169.30705249 289.40399987 C165.49296914 289.41832628 161.67910421 289.41425039 157.86500955 289.40683305 C153.73537491 289.40207162 149.60578554 289.41463732 145.47616577 289.42485046 C137.40207432 289.44198578 129.32806088 289.44288947 121.25395598 289.43763756 C114.68691352 289.43358484 108.119894 289.43505246 101.55285263 289.44038582 C100.61574623 289.44113424 99.67863984 289.44188266 98.71313628 289.44265376 C96.80898945 289.44418535 94.90484263 289.4457237 93.00069581 289.44726873 C75.17196609 289.46097467 57.34328033 289.45556947 39.51455162 289.44408352 C23.23056032 289.43415276 6.94668267 289.4470925 -9.33729111 289.47101771 C-26.08912722 289.49544344 -42.84091047 289.50500807 -59.59276402 289.49836498 C-68.98508264 289.49488053 -78.3773139 289.49705359 -87.76961899 289.51461601 C-95.76476046 289.5293815 -103.75975305 289.52991686 -111.75489174 289.5125451 C-115.82785036 289.50406844 -119.9005435 289.50180316 -123.97348785 289.51719666 C-155.29671963 289.62710483 -155.29671963 289.62710483 -168 285 C-169.10256071 284.61167212 -170.20512142 284.22334425 -171.34109306 283.82324886 C-191.59601945 276.35014051 -208.71818405 259.46198322 -217.90478516 240.09228516 C-221.06336883 232.97789201 -223.85495526 225.73276966 -225 218 C-225.10957031 217.2884375 -225.21914062 216.576875 -225.33203125 215.84375 C-228.18673787 194.22410518 -222.8406433 172.22742904 -210.15625 154.41015625 C-208.17881322 151.86381405 -206.12928951 149.42054168 -204 147 C-203.00033203 145.85724609 -203.00033203 145.85724609 -201.98046875 144.69140625 C-190.47855715 132.37859922 -174.48462513 124.2031736 -158 121 C-156.33343997 120.98114716 -154.66653008 120.97866314 -153 121 C-153.02066528 120.09338623 -153.02066528 120.09338623 -153.04174805 119.16845703 C-153.47909625 85.01583726 -139.61101401 54.4161675 -116.3125 29.9375 C-101.17381211 15.21803732 -82.21931165 5.59188153 -62 0 C-60.79988281 -0.3403125 -59.59976563 -0.680625 -58.36328125 -1.03125 C-40.03317333 -5.3115779 -18.15585035 -5.11084096 0 0 Z " fill="#4AA3FF" transform="translate(238,113)"/>
</svg>
